<?xml version="1.0" standalone="no"?>
<!DOCTYPE svg PUBLIC "-//W3C//DTD SVG 1.1//EN" "http://www.w3.org/Graphics/SVG/1.1/DTD/svg11.dtd">
<svg width="100%" height="100%" viewBox="0 0 800 200" version="1.1" xmlns="http://www.w3.org/2000/svg" xmlns:xlink="http://www.w3.org/1999/xlink" xml:space="preserve" style="fill-rule:evenodd;clip-rule:evenodd;stroke-linejoin:round;stroke-miterlimit:1.41421;">
    <g transform="matrix(1,0,0,1,99.5298,75.1723)">
        <g id="Layer1">
            <path d="M173.2,-20.885L173.883,-20.885L180.915,-20.202L180.915,-20.885L181.647,-20.202L184.43,-20.202L185.163,-20.885L190.045,-19.469L190.778,-20.202L191.461,-20.202L193.561,-19.469L193.561,-16.686L197.077,-3.307L195.709,-3.307L195.709,-2.624C197.337,-2.624 198.265,-0.752 198.493,2.992L196.393,3.724L196.393,5.091C199.192,5.091 200.592,6.507 200.592,9.339L202.692,11.439C206.468,10.951 208.356,7.907 208.356,2.308C209.17,2.308 210.097,0.436 211.139,-3.307C214.069,-13.04 216.185,-18.428 217.487,-19.469L218.17,-19.469L232.233,-18.786L232.233,-19.469L235.016,-18.786L235.016,-18.102C232.444,-7.327 230.345,-1.94 228.717,-1.94L228.034,-1.94L228.717,0.209L227.301,5.824L226.618,5.824L226.618,4.408L223.786,7.191L224.518,7.191L225.202,6.507L225.885,7.191L225.885,5.824L226.618,5.824L226.618,7.923L225.885,12.855L234.332,13.539C234.332,14.483 233.161,14.955 230.817,14.955L222.37,40.931L223.102,41.664L218.854,49.33L215.387,48.695L214.655,49.33L213.971,48.695L212.555,48.695L211.872,49.33L211.139,48.695L201.325,48.695C200.023,48.695 197.435,42.136 193.561,29.017C191.347,24.916 189.476,19.984 187.946,14.222L183.014,13.539L182.331,14.222C179.531,13.636 178.131,12.709 178.131,11.439C179.889,11.439 181.061,9.795 181.647,6.507L180.915,6.507L180.231,7.191L173.2,-16.686L173.883,-16.686L173.2,-17.37L173.2,-20.885ZM224.518,-4.04C224.518,-2.64 223.102,-1.94 220.27,-1.94L220.27,-1.208L221.686,-1.208L225.885,-2.624L225.885,-4.04L224.518,-4.04ZM216.071,-2.624L216.071,-1.208L216.754,-0.524L217.487,-0.524L216.754,-2.624L216.071,-2.624ZM193.561,-0.524L193.561,0.892L194.293,0.209L194.977,0.209L195.709,0.892L197.077,0.892L197.077,0.209L193.561,-0.524ZM212.555,-0.524L213.971,0.892L214.655,0.892L213.239,-0.524L212.555,-0.524ZM217.487,0.892C217.487,2.78 217.015,3.724 216.071,3.724L215.387,3.724L215.387,2.308C211.611,3.578 209.723,5.205 209.723,7.191C211.839,6.605 213.483,5.449 214.655,3.724L216.754,4.408L216.071,5.091L216.071,5.824L216.754,5.824L218.854,1.576L218.854,0.892L217.487,0.892ZM218.17,4.408L218.854,4.408L220.27,2.992L219.586,2.992L218.17,4.408ZM185.846,3.724L185.846,4.408L187.262,5.824L188.678,5.824L188.678,5.091C188.678,4.18 187.962,3.724 186.53,3.724L185.846,3.724ZM220.27,4.408L222.37,7.191L223.102,7.191L222.37,6.507L222.37,5.091L223.786,5.091L223.786,3.724L220.27,4.408ZM184.43,5.824L184.43,6.507L185.163,7.191L186.53,7.191L186.53,6.507L184.43,5.824ZM209.04,8.607L208.356,7.923L208.356,8.607L211.139,10.023C211.139,8.623 212.311,7.923 214.655,7.923L215.387,8.607L215.387,6.507L214.655,6.507L209.04,8.607ZM194.293,8.607L194.293,10.023L194.977,10.023L195.709,9.339L196.393,10.023L199.176,10.023L198.493,9.339L198.493,8.607L199.176,7.923L199.176,7.191L194.293,8.607ZM183.747,7.923L183.014,10.023L183.747,10.707L185.163,10.707L185.163,10.023L183.747,10.023L184.43,9.339L184.43,7.923L183.747,7.923ZM209.04,14.955L209.04,18.47L210.456,18.47L211.139,14.955L209.04,14.955Z" style="fill:rgb(34,34,34);fill-rule:nonzero;"/>
            <path d="M272.956,-19.079C274.16,-19.079 278.473,-6.139 285.895,19.74L286.53,23.109L286.53,24.476L287.897,24.476C289.134,31.735 290.501,35.365 291.998,35.365L294.733,49.671L294.049,48.988L283.844,48.988L283.161,49.671L282.477,48.988L277.692,48.988L276.325,47.621L276.325,46.253C276.325,41.273 273.834,38.783 268.854,38.783L268.17,39.466L267.487,39.466L265.436,38.783L265.436,39.466L264.752,38.783L259.332,38.783L252.497,39.466L253.18,40.15L253.18,40.834C252.106,45.423 250.983,48.369 249.811,49.671L249.127,48.988L242.975,48.988L242.291,49.671L241.608,48.988L234.87,48.988L234.87,44.886L236.188,42.884L235.553,42.884L239.606,31.312L239.606,30.628L238.922,29.945C239.541,29.945 241.12,25.86 243.659,17.689L245.709,13.587L245.026,12.904L247.76,5.433L247.077,4.75C247.988,4.75 249.355,1.12 251.178,-6.139L251.862,-8.874L252.497,-9.557L253.18,-9.557L252.497,-10.241L252.497,-10.924C254.319,-13.561 255.231,-15.823 255.231,-17.711L254.547,-18.395L255.231,-19.079L272.956,-19.079ZM264.069,8.167L259.332,21.742L266.12,22.425L267.487,22.425L269.538,19.74C268.528,19.74 267.617,17.917 266.803,14.271L267.487,13.587C266.738,13.587 266.054,12.237 265.436,9.535L266.12,8.851L264.069,8.167ZM270.319,-0.719L240.241,-0.963C238.548,-0.638 237.702,-0.654 237.702,-1.012L237.262,-0.622L232.233,-0.573L228.864,-0.67L228.864,-1.5L228.424,-1.5L228.375,-0.67L220.123,-1.305L223.737,-2.282L234.772,-1.793L264.459,-2.038L264.02,-1.598L268.659,-2.331C271.719,-1.224 272.272,-0.687 270.319,-0.719Z" style="fill:rgb(34,34,34);fill-rule:nonzero;"/>
            <path d="M356.403,-8.629L356.793,-8.629L356.793,-7.75L355.573,-7.262L355.524,-7.702L356.403,-8.629ZM353.815,-5.504L354.694,-5.553C354.726,-4.381 355.605,-3.812 357.331,-3.844L357.331,-3.014L357.77,-3.014L357.77,-3.844L358.209,-3.454L358.649,-3.893L359.088,-3.893L360.797,-3.063L361.237,-3.551L366.022,-3.649L366.461,-3.209L366.852,-3.649L368.17,-3.698L368.61,-3.258L369.049,-3.698L371.198,-3.307L372.516,-3.356L372.956,-3.795L373.346,-3.356L376.813,-3.405L377.252,-3.893L377.692,-3.454L378.131,-3.454L378.571,-3.893L379.01,-3.893L382.477,-3.551L382.477,-3.112L362.604,-2.672C360.293,-2.64 359.137,-2.038 359.137,-0.866L358.698,-0.866C358.698,-2.038 357.982,-2.607 356.549,-2.575L355.231,-1.208L355.231,-2.086L352.643,-1.159L352.643,-2.477L352.204,-2.038L351.325,-1.989L350.885,-2.428L350.446,-2.428L350.446,-1.989L350.055,-2.428L346.979,-2.331L345.709,-1.891L343.561,-2.282L332.282,-2.038L332.233,-2.477L337.848,-3.063L337.848,-2.624L342.633,-3.551L343.073,-3.161L343.073,-3.551L343.512,-3.161L343.903,-3.161L344.342,-3.551L344.782,-3.209L348.248,-3.258L350.348,-5.016L350.397,-4.577L350.006,-4.137L350.006,-3.698L350.397,-3.307L351.276,-3.307L351.276,-4.137L354.303,-3.405L354.303,-3.795L353.815,-5.504ZM318.024,-15.416L319.782,-15.465L319.782,-15.905L318.024,-15.856L318.024,-15.416ZM320.612,-15.465L323.248,-15.514L323.248,-15.954L320.612,-15.905L320.612,-15.465ZM388.092,-3.649L390.68,-3.698L390.68,-3.258L388.092,-3.209L388.092,-3.649ZM326.032,-23.766L328.62,-23.815L328.62,-23.375L326.032,-23.327L326.032,-23.766ZM329.498,-23.815L331.207,-23.864L331.207,-23.424L329.498,-23.375L329.498,-23.815ZM331.159,-9.313L333.356,-9.362L333.307,-9.801L331.11,-9.752L331.159,-9.313ZM334.577,-9.801L340.192,-9.948L340.192,-9.508L334.625,-9.362L334.577,-9.801ZM341.95,-9.948L343.659,-9.997L343.659,-9.557L341.95,-9.508L341.95,-9.948ZM348.004,-10.094L350.592,-9.704L350.641,-9.264L347.614,-9.215L348.004,-9.655L348.004,-10.094ZM351.911,-10.192L354.938,-9.801L358.405,-10.29L362.75,-9.948L362.75,-10.387L363.141,-9.997L365.338,-10.436L367.047,-10.045L367.047,-10.485L367.487,-10.045L367.926,-10.094L369.635,-10.534L370.954,-10.143L371.393,-10.583L371.393,-10.143L371.832,-10.583L373.981,-10.192L375.299,-10.241L375.739,-10.68L376.129,-10.241L377.887,-10.29L378.327,-10.729L378.766,-10.29L385.7,-10.436L385.7,-9.997L384.821,-9.997L384.87,-9.606L384.381,-9.997L376.618,-9.801L374.909,-9.411L373.151,-9.752L372.76,-9.752L372.321,-9.313L371.881,-9.704L370.563,-9.704L370.123,-9.313L369.684,-9.655L369.293,-9.655L368.854,-9.264L365.827,-9.606L351.081,-9.264L351.911,-10.192ZM386.09,-10.436L389.997,-10.534L392.194,-10.143L392.243,-9.752L391.803,-9.752L389.118,-10.094L388.288,-10.045L387.897,-9.655L386.09,-9.997L386.09,-10.436ZM357.379,-0.817L358.698,-0.866L358.747,-0.036L357.428,0.013L357.379,-0.817ZM295.465,-18.249L296.149,-17.663L296.832,-17.663L300.153,-18.346L301.52,-17.077L302.204,-17.077L302.204,-18.395L305.524,-17.858L307.575,-18.541L311.579,-17.272L314.948,-18.053L319.635,-18.151L322.321,-17.516L324.323,-18.249L323.053,-16.149L323.053,-15.514L324.372,-15.563L326.373,-16.93L327.692,-16.93L327.741,-15.612L329.108,-15.661L329.743,-16.295L330.426,-16.344L332.477,-14.342L331.842,-13.659L331.842,-13.024L333.209,-11.706L333.161,-13.708L333.844,-13.708C334.528,-13.708 335.211,-12.829 335.895,-11.071L337.262,-11.071L337.262,-10.436L336.627,-9.752L336.627,-9.069L339.362,-7.116L337.995,-7.116L337.995,-5.749L338.678,-5.749L339.362,-6.432L340.045,-6.481L342.975,5.531L342.34,6.214L342.34,6.898L343.024,7.582L341.168,15.687C340.192,18.845 339.329,20.423 338.581,20.423L337.946,21.107L337.995,22.425C335.553,23.402 333.991,24.785 333.307,26.576L333.405,29.261L343.903,47.865L343.903,49.183L339.166,49.232L333.161,48.792L332.477,49.378L325.104,48.939L325.739,48.255L325.69,47.572C324.811,47.572 324.355,46.449 324.323,44.203L323.639,44.935L322.956,44.935L320.856,40.296L321.54,40.296L320.123,37.611L320.807,36.927L319.489,36.927L320.075,36.244L320.075,34.925C318.284,34.958 317.357,33.412 317.291,30.287L311.92,29.75L310.651,33.119L311.383,35.804L311.432,36.439L310.065,38.539L310.114,39.173L311.481,39.125L311.53,41.175L310.163,41.224L311.53,43.177L310.895,43.861L311.579,44.496L311.627,47.865L310.309,49.232L302.936,49.378L297.565,48.158L295.563,48.89L295.563,48.207L294.098,44.837L294.782,44.203L294,40.834L295.319,36.781L293.952,36.83C293.919,35.495 294.57,34.811 295.905,34.779L294.538,32.777L294.538,32.093L295.172,31.41L295.172,30.775L293.805,30.824L295.075,26.039L294.391,25.404L295.709,25.404C295.677,24.037 296.344,23.337 297.711,23.304C297.679,22.425 298.558,21.97 300.348,21.937L300.348,20.57L298.297,20.619C298.297,21.986 297.646,22.669 296.344,22.669L295.612,22.035L295.661,23.353L294.293,22.035L294.196,17.982L294.879,17.347L294.196,16.664L294.147,15.296L294.831,14.662L294.147,13.978L294.733,10.609L293.952,5.921L294.586,3.871L293.903,3.871C294.098,2.08 294.749,1.185 295.856,1.185L295.856,0.55L294.538,0.55L294.538,-0.133L295.123,-0.817L294.489,-1.5L294.489,-2.135L295.075,-2.819L294.44,-3.502L294.391,-6.188L295.026,-6.872L294.342,-7.506L294.342,-8.19L294.928,-10.192L294.245,-12.243L294.879,-12.243L294.245,-12.877L294.245,-13.561L296.198,-15.612L296.198,-16.295L295.465,-18.249ZM338.288,-3.502C336.92,-3.47 336.253,-3.014 336.286,-2.135L336.286,-1.452L337.653,-1.452C337.62,-2.331 338.271,-2.786 339.606,-2.819L339.606,-3.502L338.288,-3.502ZM353.034,-3.112L351.764,-1.793L351.081,-1.745L351.032,-3.063L353.034,-3.112ZM330.524,-11.657L329.206,-10.29L329.254,-8.239L330.573,-8.288C330.54,-9.655 330.98,-10.338 331.891,-10.338L331.891,-11.657L330.524,-11.657ZM296.979,-10.241L297.028,-9.606L298.346,-8.288L298.346,-8.971L296.979,-10.241ZM325.202,-9.508L325.202,-8.141L326.569,-8.19L326.52,-10.875L325.202,-9.508ZM332.526,-10.973L331.256,-9.655L332.575,-8.288C332.575,-9.199 333.47,-9.687 335.26,-9.752L333.893,-11.022L332.526,-10.973ZM346.491,2.406L347.125,2.357L348.493,3.675L345.123,3.724L346.491,2.406ZM339.118,4.554L339.118,5.238L341.803,5.189L341.803,4.505L339.118,4.554ZM297.711,-5.553L297.76,-4.87L298.444,-4.918L299.762,-6.286L299.762,-6.969L299.079,-6.969L297.711,-5.553ZM318.561,-6.676L318.561,-5.993L317.877,-6.676L316.51,-6.627L313.19,-5.895L313.19,-5.211L315.241,-4.625L315.875,-5.26L316.51,-5.26L318.61,-4.674L318.561,-5.309L321.247,-6.09L321.247,-6.774L319.879,-6.725L319.196,-7.409L318.561,-6.676ZM333.307,-7.702L334.674,-6.334L335.309,-6.383L335.309,-7.75L333.307,-7.702ZM331.305,-6.286L331.354,-4.967L332.038,-4.967L333.307,-6.334L331.305,-6.286ZM339.166,8.558L341.266,10.56L341.901,9.876L341.901,9.193L339.166,8.558ZM302.497,-3.649L302.545,-2.282C303.88,-2.314 304.564,-1.663 304.596,-0.329L304.596,0.355C305.345,0.322 305.98,-0.817 306.5,-3.063L305.817,-3.747L305.182,-3.063L304.498,-3.014L302.497,-3.649ZM310.602,-1.842L311.237,-1.159L311.286,0.209L309.967,0.209L309.967,1.527L311.286,1.527L311.383,6.214L310.895,12.953L319.635,14.125C322.109,14.092 324.079,12.041 325.543,7.972L326.276,8.558L327.594,8.558L327.545,7.24C326.406,7.272 325.023,4.847 323.395,-0.036L316.608,-1.256L316.022,-0.573L311.969,-0.475L311.92,-1.842L310.602,-1.842ZM336.09,-1.012L335.456,-0.329L336.188,1.673L339.557,1.625L339.508,0.941L336.09,-1.012ZM299.274,2.455L299.957,2.455L301.227,1.039L300.543,1.039L299.274,2.455ZM327.448,1.869L327.448,3.187L329.498,3.138L328.131,1.869L327.448,1.869ZM325.69,13.343L326.373,13.294L325.69,14.027L325.69,15.345L327.692,15.296L327.692,13.978L327.057,13.294L327.643,12.611L327.643,11.244L325.69,13.343ZM297.711,24.671L298.395,25.355L299.079,25.306L299.03,23.255L297.711,24.671ZM330.622,24.671L330.036,28.675L330.67,28.675L331.354,27.943L332.038,27.943L331.305,24.623L330.622,24.671ZM307.184,27.845L307.233,29.847L308.6,29.798L308.551,29.115L307.184,27.845ZM330.084,30.677L329.45,33.363L331.452,31.996L331.5,33.998L332.184,33.998L332.086,31.312L331.403,30.628L330.084,30.677ZM320.709,32.24L320.758,34.242L322.711,33.509L322.711,32.191L320.709,32.24ZM301.911,33.949L301.959,35.316L303.961,35.267L303.913,33.9L301.911,33.949ZM298.737,42.054L298.737,43.421L300.104,43.421L301.422,42.005L301.422,41.371L298.737,42.054ZM327.057,46.839L326.373,47.572L326.422,48.255L328.375,47.523L328.375,46.839L327.057,46.839Z" style="fill:rgb(34,34,34);fill-rule:nonzero;"/>
            <path d="M381.5,-19.86C402.529,-19.86 415.338,-9.899 419.928,10.023L419.098,10.707L419.928,13.49C419.928,30.254 413.109,41.826 399.469,48.207L390.924,50.99L387.506,50.257L387.506,50.99L379.84,47.523L379.84,49.574C381.533,49.574 382.379,50.046 382.379,50.99L380.67,50.99C375.56,50.339 373.004,49.411 373.004,48.207L373.004,47.523L369.586,48.207C366.136,47.263 362.995,45.179 360.163,41.957L358.454,41.957L358.454,41.273L359.332,39.173L358.454,39.173C356.468,39.173 353.636,35.479 349.957,28.089L350.788,27.357L349.957,26.673L350.788,25.99C349.616,25.99 349.03,24.362 349.03,21.107L348.2,21.107L349.03,20.423L349.03,19.74L348.2,16.273L349.03,15.541L348.2,14.857L347.37,14.857L349.03,9.291L348.2,9.291C349.176,2.813 351.178,-0.426 354.206,-0.426L354.206,-1.11L352.448,-1.11L352.448,-2.477C353.945,-2.477 354.808,-3.633 355.036,-5.944C359.528,-11.217 364.101,-14.928 368.756,-17.077L369.586,-16.393L371.247,-16.393L370.416,-17.077L370.416,-17.76L371.247,-17.76L372.174,-17.077L373.004,-17.077L373.004,-17.76L372.174,-18.493L381.5,-19.86ZM375.495,-11.51L375.495,-10.143L378.082,-10.143L376.422,-11.51L375.495,-11.51ZM370.416,14.857L371.247,17.64L370.416,18.324L371.247,19.056L371.247,19.74L370.416,20.423L370.416,21.107L371.247,21.839L368.756,22.523L368.756,23.89L370.416,23.89L371.247,23.207L372.174,23.207C372.174,27.438 375.853,30.677 383.209,32.923L384.088,32.24L384.088,32.923C390.566,31.263 394.554,28.724 396.051,25.306L395.221,25.306L398.639,18.324L397.711,15.541L398.639,15.541L397.711,14.857L397.711,13.49L398.639,12.806C395.709,3.073 390.859,-1.793 384.088,-1.793C374.974,-0.101 370.416,5.449 370.416,14.857ZM366.168,13.49L365.338,15.541L366.168,15.541L366.998,14.857L366.998,13.49L366.168,13.49ZM367.829,28.089L367.829,28.773L369.586,28.773L369.586,26.673L367.829,28.089ZM408.844,28.089L407.965,30.14L407.965,30.824L408.844,30.824L410.553,29.457L410.553,28.089L408.844,28.089ZM380.67,35.707L381.5,37.806L383.209,37.806L382.379,35.707L380.67,35.707Z" style="fill:rgb(34,34,34);fill-rule:nonzero;"/>
        </g>
    </g>
</svg>
